<svg width="343" height="269" viewBox="0 0 343 269" fill="none" xmlns="http://www.w3.org/2000/svg">
<g filter="url(#filter0_f_2081_890)">
<rect x="275.793" y="138.244" width="9.60767" height="9.60767" rx="0.945615" transform="rotate(-180 275.793 138.244)" fill="#00B068"/>
<rect x="192.117" y="14.3672" width="9.60767" height="9.60767" rx="0.945615" transform="rotate(-180 192.117 14.3672)" fill="#00B068"/>
<rect x="209.139" y="248.957" width="14.4115" height="14.4115" rx="0.945615" transform="rotate(-180 209.139 248.957)" fill="#00B068"/>
<rect x="316.939" y="167.635" width="14.4115" height="14.4115" rx="0.945615" transform="rotate(-180 316.939 167.635)" fill="#00B068"/>
<rect x="204.41" y="78.5938" width="4.80383" height="4.80383" rx="0.945615" transform="rotate(-180 204.41 78.5938)" fill="#00B068"/>
<rect x="337.742" y="97.7734" width="4.80383" height="4.80383" rx="0.945615" transform="rotate(-180 337.742 97.7734)" fill="#00B068"/>
<rect x="116.855" y="234.947" width="4.80383" height="4.80383" rx="0.945615" transform="rotate(-180 116.855 234.947)" fill="#00B068"/>
<rect x="10" y="264.262" width="4.80383" height="4.80383" rx="0.945615" transform="rotate(-180 10 264.262)" fill="#00B068"/>
<rect x="175.096" y="147.699" width="9.60767" height="9.60767" rx="0.945615" transform="rotate(-180 175.096 147.699)" fill="#00B068"/>
<rect x="136.326" y="56.8457" width="4.80383" height="4.80383" rx="0.945615" transform="rotate(-180 136.326 56.8457)" fill="#00B068"/>
</g>
<defs>
<filter id="filter0_f_2081_890" x="-1.72807" y="-0.728073" width="345.456" height="269.718" filterUnits="userSpaceOnUse" color-interpolation-filters="sRGB">
<feFlood flood-opacity="0" result="BackgroundImageFix"/>
<feBlend mode="normal" in="SourceGraphic" in2="BackgroundImageFix" result="shape"/>
<feGaussianBlur stdDeviation="2.36404" result="effect1_foregroundBlur_2081_890"/>
</filter>
</defs>
</svg>
